# xmcd CD database file
#
# Track frame offsets:
#	182
#	20370
#	46120
#	72977
#	101832
#	126215
#	152147
#	189940
#	212537
#	239502
#	264387
#
# Disc length: 3815 seconds
#
# Revision: 1
# Processed by: cddbd v1.4PL0 Copyright (c) Steve Scherf et al.
# Submitted via: CDex 1.51
#
DISCID=920ee50b
DTITLE=Stefan Karlsson - Below Zero
DYEAR=1993
DGENRE=Jazz
TTITLE0=Ack Varmland Du Skona
TTITLE1=All You Were to Us
TTITLE2=El Ontono
TTITLE3=In Love in Vain
TTITLE4=Below Zero
TTITLE5=You'll Never Believe
TTITLE6=Infinite
TTITLE7=Give Thanks
TTITLE8=The Night We First Met
TTITLE9=Lotus Blossom
TTITLE10=Bustin' Chops
EXTD=YEAR: 1993
EXTT0=
EXTT1=
EXTT2=
EXTT3=
EXTT4=
EXTT5=
EXTT6=
EXTT7=
EXTT8=
EXTT9=
EXTT10=
PLAYORDER=
